P3
#Teste 1 aqui
#Teste 2 aqui

3 8

255
186 175 111 182 171 109 187 176 114
186 175 113 184 173 111 188 178 116
186 175 111 182 171 109 187 176 114
186 175 113 184 173 111 188 178 116
186 175 113 184 173 111 188 178 116
186 175 111 182 171 109 187 176 114
186 175 113 184 173 111 188 178 116
186 175 113 184 173 111 188 178 116
